<svg xmlns="http://www.w3.org/2000/svg" preserveAspectRatio="xMidYMid" width="15" height="16" viewBox="0 0 15 16"><path fill="#ea5e20" d="M14.688 12.474l-.09-.18c-.254-.588-3.364-1.48-3.617-1.498l-.19.017c-.38.07-.79.41-1.61 1.108-.16.15-.38.18-.58.07-1.06-.58-2.37-1.76-3.02-2.48-.71-.76-1.56-2.03-1.96-3.05-.07-.19 0-.41.15-.55.92-.82 1.32-1.21 1.36-1.64C5.14 4.02 4.6.86 4.04.56L3.875.44c-.362-.23-.905-.57-1.5-.444-.146.035-.29.09-.417.16-.4.25-1.395.927-1.846 1.802-.272.552-.398 5.57 3.4 9.8 3.76 4.194 8.407 4.373 9.094 4.23h.018l.054-.017c.94-.34 1.736-1.21 2.044-1.59.56-.66.18-1.46-.036-1.91z"/></svg>