<svg xmlns="http://www.w3.org/2000/svg">
    <symbol id="twitter" width="16" height="13" viewBox="0 0 16 13">
        <path d="M16 1.56c-.27.15-1.078.447-1.832.52.484-.26 1.2-1.113 1.376-1.792-.465.297-1.532.73-2.06.73l.002.002C12.884.39 12.038 0 11.1 0 9.276 0 7.797 1.476 7.797 3.3c0 .253.03.5.085.735C5.408 3.972 2.518 2.732.89.61c-1 1.734-.135 3.66 1 4.362-.387.03-1.104-.044-1.44-.372-.024 1.15.53 2.673 2.545 3.225-.388.21-1.074.15-1.374.104.11.97 1.47 2.24 2.96 2.24-.53.61-2.33 1.72-4.57 1.37C1.52 12.46 3.29 13 5.17 13c5.32 0 9.46-4.316 9.24-9.64l-.007-.02.01-.042v-.05c.484-.33 1.134-.916 1.6-1.69z"/>
    </symbol>
    <symbol id="instagram" width="16" height="16" viewBox="0 0 16 16">
        <path d="M2-.005H1c-.553 0-1 .446-1 1v13.998c0 .555.447 1.002 1 1.002h14c.552 0 1-.447 1-1v-14c0-.555-.448-1-1-1H2zm6 6c1.103 0 2 .897 2 2 0 1.104-.897 2.002-2 2.002-1.104 0-2-.898-2-2.003 0-1.102.896-2 2-2zm6 7.998H2v-6h2c0 2.21 1.795 4 4 4s4-1.79 4-4h2v6zm0-9h-3v-3h3v3z"/>
    </symbol>
    <symbol id="google" width="15" height="16" viewBox="0 0 15 16">
        <path d="M13.046 8.02l-.015 2.01h-1V8.02h-1.99V7h2V5.03h1.02V7h1.96v1.02h-1.96zM7.81.65s1.415.876 1.415 2.59c0 1.712-.827 2.458-1.87 3.38-1.047.922-.437 1.47 1.196 2.634 1.64 1.162 2.09 3.734-.02 5.6C6.42 16.72 0 16.468 0 13.008s4.83-3.516 5.224-3.516c.39 0 .46-.11.13-.46-.326-.35-.85-1.03-.24-1.777-1.09.045-4.09-.55-4.09-3.315S3.914-.01 4.96-.01h5.203s-.234.197-.78.503C8.833.8 7.81.648 7.81.648zM1.844 12.37c0 1.604 1.154 2.68 3.307 2.68 2.16 0 3.43-.725 3.43-2.218 0-1.494-1.42-2.24-2.22-2.854-2.94 0-4.51.79-4.51 2.393zM4.74.52c-3.05 0-1.873 6.055.72 6.055C8.898 6.575 7.113.43 4.74.52z"/>
    </symbol>
    <symbol id="facebook"  width="16" height="16" viewBox="0 0 8 16">
        <path d="M5.948 3.044H8.01V-.002H5.586v.01C2.65.113 2.046 1.765 1.994 3.5H1.99v1.52h-2v2.984h2V16h3.013V8.002h2.47l.475-2.984H5.003v-.92c0-.583.39-1.054.945-1.054z"/>
    </symbol>
</svg>