<svg xmlns="http://www.w3.org/2000/svg" xmlns:xlink="http://www.w3.org/1999/xlink" preserveAspectRatio="xMidYMid" width="16" height="16" viewBox="0 0 16 16">
  <path fill="#f26522" d="M8.000,-0.000 C3.582,-0.000 -0.000,3.581 -0.000,8.000 C-0.000,12.418 3.582,16.000 8.000,16.000 C12.418,16.000 16.000,12.418 16.000,8.000 C16.000,3.581 12.418,-0.000 8.000,-0.000 ZM8.000,14.000 C4.686,14.000 2.000,11.314 2.000,8.000 C2.000,4.686 4.686,2.000 8.000,2.000 C11.314,2.000 14.000,4.686 14.000,8.000 C14.000,11.314 11.314,14.000 8.000,14.000 ZM7.000,6.000 L9.000,6.000 L9.000,4.000 L7.000,4.000 L7.000,6.000 ZM7.000,12.000 L9.000,12.000 L9.000,7.000 L7.000,7.000 L7.000,12.000 Z" />
</svg>
