<svg xmlns="http://www.w3.org/2000/svg" xmlns:xlink="http://www.w3.org/1999/xlink" preserveAspectRatio="xMidYMid" width="16" height="16" viewBox="0 0 16 16">
  <path fill="#fff" d="M15.000,16.000 L11.000,16.000 L1.000,16.000 C0.448,16.000 -0.000,15.552 -0.000,15.000 L-0.000,1.000 C-0.000,0.448 0.448,-0.000 1.000,-0.000 L9.000,-0.000 L11.000,-0.000 L12.000,-0.000 L12.000,1.000 L12.000,2.000 L15.000,2.000 C15.552,2.000 16.000,2.447 16.000,3.000 L16.000,15.000 C16.000,15.552 15.552,16.000 15.000,16.000 ZM14.000,4.000 L12.000,4.000 L12.000,12.000 L11.000,12.000 L11.000,2.000 L10.000,2.000 L9.000,2.000 L2.000,2.000 L2.000,14.000 L10.000,14.000 L11.000,14.000 L12.000,14.000 L14.000,14.000 L14.000,4.000 ZM4.000,11.000 L9.000,11.000 L9.000,12.000 L4.000,12.000 L4.000,11.000 ZM4.000,9.000 L9.000,9.000 L9.000,10.000 L4.000,10.000 L4.000,9.000 ZM4.000,4.000 L9.000,4.000 L9.000,8.000 L4.000,8.000 L4.000,4.000 Z"/>
</svg>
