<svg xmlns="http://www.w3.org/2000/svg" xmlns:xlink="http://www.w3.org/1999/xlink" preserveAspectRatio="xMidYMid" width="16" height="16" viewBox="0 0 16 16">
  <path fill="#f26522" d="M16.000,11.000 L16.000,12.000 C16.000,12.552 15.552,13.000 15.000,13.000 L14.000,13.000 C14.000,13.000 14.000,13.000 14.000,13.000 L13.000,13.000 L13.000,16.000 L8.500,13.000 L2.000,13.000 C2.000,13.000 2.000,13.000 2.000,13.000 L1.000,13.000 C0.448,13.000 -0.000,12.552 -0.000,12.000 L-0.000,1.000 C-0.000,0.447 0.448,-0.000 1.000,-0.000 L3.000,-0.000 L5.000,-0.000 L5.000,-0.000 L13.000,-0.000 C13.000,-0.000 13.000,-0.000 13.000,-0.000 L15.000,-0.000 C15.552,-0.000 16.000,0.447 16.000,1.000 L16.000,2.000 C16.000,2.000 16.000,2.000 16.000,2.000 L16.000,11.000 C16.000,11.000 16.000,11.000 16.000,11.000 ZM14.000,2.000 L12.000,2.000 L12.000,2.000 L4.000,2.000 L4.000,2.000 L2.000,2.000 L2.000,9.000 L2.000,11.000 L4.000,11.000 L4.000,11.000 L8.500,11.000 L11.000,12.500 L11.000,11.000 L12.000,11.000 L12.000,11.000 L14.000,11.000 L14.000,2.000 ZM5.000,9.000 L4.000,9.000 L4.000,7.000 L12.000,7.000 L12.000,9.000 L5.000,9.000 L5.000,9.000 ZM4.000,4.000 L12.000,4.000 L12.000,6.000 L4.000,6.000 L4.000,4.000 Z" />
</svg>
