<svg xmlns="http://www.w3.org/2000/svg" baseProfile="tiny" width="18" height="18" viewBox="0 0 480 480"><g fill="#fff"><path d="M381.834 361.39c5.045 0 9.174-4.124 9.174-9.167v-14.657c0-5.048-3.158-11.848-6.986-15.11 0 0-59.893-50.875-64.393-131.983-5.39-97.003-54.985-93.017-80.743-93.017s-75.348-3.986-80.742 93.017c-4.508 81.108-64.39 131.984-64.39 131.984-3.835 3.262-6.985 10.062-6.985 15.11v14.656c0 5.043 4.125 9.168 9.174 9.168h285.89zM236.022 79.188h5.735l3.364-.013c7.93 0 16.132.53 24.19 2.235v-7.158c0-10.03-8.212-18.25-18.257-18.25h-24.328c-10.05 0-18.26 8.22-18.26 18.25v7.158c8.055-1.705 16.258-2.235 24.188-2.235l3.37.013zM202.38 379.64c0 16.737 13.687 36.364 30.423 36.364h12.172c16.736 0 30.422-19.627 30.422-36.363H202.38z"/></g></svg>