<svg xmlns="http://www.w3.org/2000/svg" preserveAspectRatio="xMidYMid" width="15" height="16" viewBox="0 0 15 16"><path fill="#a0a0a0" d="M13.046 8.02l-.015 2.01h-1V8.02h-1.99V7h2V5.03h1.02V7h1.96v1.02h-1.96zM7.81.65s1.415.876 1.415 2.59c0 1.712-.827 2.458-1.87 3.38-1.047.922-.437 1.47 1.196 2.634 1.64 1.162 2.09 3.734-.02 5.6C6.42 16.72 0 16.468 0 13.008s4.83-3.516 5.224-3.516c.39 0 .46-.11.13-.46-.326-.35-.85-1.03-.24-1.777-1.09.045-4.09-.55-4.09-3.315S3.914-.01 4.96-.01h5.203s-.234.197-.78.503C8.833.8 7.81.648 7.81.648zM1.844 12.37c0 1.604 1.154 2.68 3.307 2.68 2.16 0 3.43-.725 3.43-2.218 0-1.494-1.42-2.24-2.22-2.854-2.94 0-4.51.79-4.51 2.393zM4.74.52c-3.05 0-1.873 6.055.72 6.055C8.898 6.575 7.113.43 4.74.52z"/></svg>