<svg xmlns="http://www.w3.org/2000/svg" preserveAspectRatio="xMidYMid" width="16" height="13" viewBox="0 0 16 13"><path fill="#a0a0a0" d="M16 1.56c-.27.15-1.078.447-1.832.52.484-.26 1.2-1.113 1.376-1.792-.465.297-1.532.73-2.06.73l.002.002C12.884.39 12.038 0 11.1 0 9.276 0 7.797 1.476 7.797 3.3c0 .253.03.5.085.735C5.408 3.972 2.518 2.732.89.61c-1 1.734-.135 3.66 1 4.362-.387.03-1.104-.044-1.44-.372-.024 1.15.53 2.673 2.545 3.225-.388.21-1.074.15-1.374.104.11.97 1.47 2.24 2.96 2.24-.53.61-2.33 1.72-4.57 1.37C1.52 12.46 3.29 13 5.17 13c5.32 0 9.46-4.316 9.24-9.64l-.007-.02.01-.042v-.05c.484-.33 1.134-.916 1.6-1.69z"/></svg>